<?xml version="1.0" encoding="UTF-8"?>
<!DOCTYPE svg PUBLIC "-//W3C//DTD SVG 1.0//EN" "http://www.w3.org/TR/2001/REC-SVG-20010904/DTD/svg10.dtd">
<!-- Creator: CorelDRAW X8 -->
<svg xmlns="http://www.w3.org/2000/svg" xml:space="preserve" width="898px" height="248px" version="1.0" style="shape-rendering:geometricPrecision; text-rendering:geometricPrecision; image-rendering:optimizeQuality; fill-rule:evenodd; clip-rule:evenodd"
viewBox="0 0 898 248"
 xmlns:xlink="http://www.w3.org/1999/xlink">
 <defs>
  <style type="text/css">
   <![CDATA[
    .str0 {stroke:#707070;stroke-width:5.90789}
    .str2 {stroke:#E6E6E6;stroke-width:5.90789}
    .str1 {stroke:#E6E6E6;stroke-width:5.90789;stroke-linecap:round}
    .fil1 {fill:none}
    .fil2 {fill:white;fill-rule:nonzero}
    .fil0 {fill:white;fill-opacity:0.200000}
   ]]>
  </style>
 </defs>
 <g id="Plan_x0020_1">
  <metadata id="CorelCorpID_0Corel-Layer"/>
  <g id="_2455412239296">
   <path class="fil0" d="M10 41l33 -5 0 -28 54 19 80 -12 0 184 -27 5 0 36 -54 -25 -86 17 0 -191z"/>
   <path class="fil1 str0" d="M96 215l54 -11"/>
   <path class="fil1 str0" d="M96 215l-53 -25 0 -156"/>
   <path class="fil1 str1" d="M96 215l-86 17 0 -191 167 -26 0 184 -27 5"/>
   <path class="fil1 str1" d="M96 215l54 25 0 -193 -107 -39 0 28"/>
   <path class="fil1 str2" d="M97 28l0 38"/>
   <path class="fil1 str2" d="M96 177l0 38"/>
   <path class="fil1 str2" d="M96 104l0 38"/>
  </g>
  <path class="fil2" d="M298 121l-23 0 0 55 -12 0 0 -106 35 0c4,0 8,1 11,3 3,3 6,6 8,10 1,4 2,8 2,12l0 1c0,4 0,8 -2,12 -2,4 -5,7 -8,9 -3,2 -7,4 -11,4zm0 -38l-23 0 0 25 23 0c3,0 5,-2 7,-4 1,-3 1,-5 1,-8 0,-4 0,-6 -1,-9 -2,-2 -4,-4 -7,-4zm81 88c-5,3 -9,5 -15,5 -5,0 -10,-2 -14,-5 -5,-3 -8,-6 -11,-11 -2,-5 -3,-10 -3,-16l0 -44c0,-9 3,-16 8,-21 6,-6 12,-9 20,-9 8,0 15,3 20,9 6,5 9,12 9,21l0 44c0,6 -2,11 -4,16 -2,5 -6,8 -10,11zm-15 -9c5,0 9,-2 11,-5 3,-4 5,-8 5,-13l0 -45c0,-4 -2,-8 -5,-11 -3,-3 -6,-5 -11,-5 -4,0 -8,2 -11,5 -3,3 -4,7 -4,11l0 45c0,5 1,9 4,13 3,3 7,5 11,5zm58 -92l0 92 44 0 0 14 -57 0 0 -106 13 0zm64 55l-21 -55 14 0 14 36 13 -36 15 0 -22 55 0 51 -13 0 0 -51zm64 51l-12 0 0 -106 56 0 0 13 -44 0 0 25 44 0 0 13 -44 0 0 55zm74 -106l0 92 44 0 0 14 -57 0 0 -106 13 0zm103 101c-4,3 -9,5 -14,5 -6,0 -11,-2 -15,-5 -4,-3 -8,-6 -10,-11 -3,-5 -4,-10 -4,-16l0 -44c0,-9 3,-16 8,-21 6,-6 13,-9 21,-9 7,0 14,3 20,9 5,5 8,12 8,21l0 44c0,6 -1,11 -4,16 -2,5 -6,8 -10,11zm-14 -9c4,0 8,-2 11,-5 3,-4 4,-8 4,-13l0 -45c0,-4 -1,-8 -4,-11 -3,-3 -7,-5 -11,-5 -5,0 -8,2 -11,5 -3,3 -5,7 -5,11l0 45c0,5 1,9 4,13 3,3 7,5 12,5zm88 14l0 -44c0,-3 -1,-5 -2,-8 -2,-2 -4,-3 -6,-3l-23 0 0 55 -13 0 0 -106 36 0c4,0 8,1 11,3 3,3 6,6 7,10 2,4 3,8 3,13 0,7 -2,13 -7,18l0 1 1 1c4,2 6,8 6,16l0 44 -13 0zm-8 -93l-23 0 0 25 23 0c3,0 5,-2 6,-4 2,-3 2,-5 2,-9 0,-3 0,-6 -2,-8 -1,-3 -3,-4 -6,-4zm82 32l0 -14c0,-4 -2,-9 -5,-12 -3,-4 -6,-6 -11,-6 -5,0 -8,2 -11,6 -3,3 -4,7 -4,12l0 14 31 0zm13 61l-13 0 0 -48 -31 0 0 48 -13 0 0 -75c0,-5 1,-10 3,-15 3,-5 6,-9 10,-12 5,-3 10,-4 15,-4 5,0 10,1 15,4 4,3 7,7 10,12 2,5 4,10 4,15l0 75z"/>
 </g>
</svg>
