<?xml version="1.0" encoding="UTF-8"?>
<!DOCTYPE svg PUBLIC "-//W3C//DTD SVG 1.0//EN" "http://www.w3.org/TR/2001/REC-SVG-20010904/DTD/svg10.dtd">
<!-- Creator: CorelDRAW X8 -->
<svg xmlns="http://www.w3.org/2000/svg" xml:space="preserve" width="898px" height="248px" version="1.0" style="shape-rendering:geometricPrecision; text-rendering:geometricPrecision; image-rendering:optimizeQuality; fill-rule:evenodd; clip-rule:evenodd"
viewBox="0 0 898 248"
 xmlns:xlink="http://www.w3.org/1999/xlink">
 <defs>
  <style type="text/css">
   <![CDATA[
    .str1 {stroke:#B2B3B3;stroke-width:5.90552}
    .str0 {stroke:#2B2A29;stroke-width:5.90552}
    .str2 {stroke:#2B2A29;stroke-width:5.90552;stroke-linecap:round}
    .fil1 {fill:none}
    .fil0 {fill:#FEFEFE}
    .fil2 {fill:#2B2A29;fill-rule:nonzero}
   ]]>
  </style>
 </defs>
 <g id="Plan_x0020_1">
  <metadata id="CorelCorpID_0Corel-Layer"/>
  <g id="_2490217972480">
   <path class="fil0 str0" d="M11 41l33 -5 0 -28 53 19 80 -12 1 184 -28 5 0 36 -54 -25 -85 17 0 -191z"/>
   <path class="fil1 str1" d="M96 215l54 -11"/>
   <path class="fil1 str1" d="M96 215l-52 -25 0 -156"/>
   <path class="fil1 str2" d="M96 215l-85 17 0 -191 166 -26 1 184 -28 5"/>
   <path class="fil1 str2" d="M96 215l54 25 0 -193 -106 -39 0 28"/>
   <path class="fil1 str0" d="M97 28l0 38"/>
   <path class="fil1 str0" d="M96 177l0 38"/>
   <path class="fil1 str0" d="M96 104l0 38"/>
  </g>
  <path class="fil2" d="M268 121l-23 0 0 55 -12 0 0 -106 35 0c4,0 8,1 11,3 3,3 6,6 8,10 1,4 2,8 2,12l0 0c0,5 0,9 -2,13 -2,3 -4,7 -8,9 -3,2 -7,4 -11,4zm0 -38l-23 0 0 25 23 0c3,0 5,-2 7,-4 1,-3 2,-5 2,-8 0,-4 -1,-6 -2,-9 -2,-3 -4,-4 -7,-4zm81 88c-5,3 -9,5 -15,5 -5,0 -10,-2 -14,-5 -5,-3 -8,-6 -10,-11 -3,-5 -4,-10 -4,-16l0 -45c0,-8 3,-15 8,-21 6,-5 12,-8 20,-8 8,0 15,3 20,8 6,6 9,13 9,21l0 45c0,6 -2,11 -4,16 -2,5 -6,8 -10,11zm-15 -9c5,0 9,-2 11,-5 3,-4 5,-8 5,-13l0 -45c0,-4 -2,-8 -5,-11 -3,-3 -6,-5 -11,-5 -4,0 -8,2 -11,5 -3,3 -4,7 -4,11l0 45c0,5 1,9 4,13 3,3 7,5 11,5zm58 -92l0 92 44 0 0 14 -57 0 0 -106 13 0zm64 54l-21 -54 14 0 14 36 13 -36 14 0 -21 54 0 52 -13 0 0 -52zm64 52l-13 0 0 -106 57 0 0 13 -44 0 0 25 44 0 0 13 -44 0 0 55zm74 -106l0 92 43 0 0 14 -56 0 0 -106 13 0zm103 101c-4,3 -9,5 -15,5 -5,0 -10,-2 -14,-5 -5,-3 -8,-6 -10,-11 -3,-5 -4,-10 -4,-16l0 -45c0,-8 3,-15 8,-21 6,-5 13,-8 20,-8 8,0 15,3 20,8 6,6 9,13 9,21l0 45c0,6 -1,11 -4,16 -2,5 -6,8 -10,11zm-15 -9c5,0 9,-2 12,-5 2,-4 4,-8 4,-13l0 -45c0,-4 -2,-8 -5,-11 -3,-3 -6,-5 -11,-5 -4,0 -7,2 -11,5 -3,3 -4,7 -4,11l0 45c0,5 1,9 4,13 3,3 7,5 11,5zm89 14l0 -44c0,-3 -1,-5 -2,-8 -2,-2 -4,-3 -6,-3l-23 0 0 55 -13 0 0 -106 36 0c4,0 7,1 11,3 3,3 5,6 7,10 2,4 3,8 3,13 0,7 -2,13 -7,18l0 1 0 0c5,3 7,9 7,17l0 44 -13 0zm-8 -93l-23 0 0 25 23 0c3,0 5,-2 6,-4 2,-3 2,-6 2,-9 0,-3 0,-6 -2,-8 -1,-3 -3,-4 -6,-4zm81 32l0 -14c0,-4 -1,-9 -4,-12 -3,-4 -7,-6 -11,-6 -5,0 -9,2 -11,6 -3,3 -5,7 -5,12l0 14 31 0zm13 61l-13 0 0 -48 -31 0 0 48 -13 0 0 -75c0,-5 2,-10 4,-15 3,-5 6,-9 10,-12 5,-3 10,-4 15,-4 5,0 10,1 14,4 5,3 8,7 11,12 2,5 3,10 3,15l0 75z"/>
  <path class="fil2" d="M366 349l-15 0 0 37 -9 0 0 -71 24 0c3,0 5,1 7,3 3,1 4,3 6,6 1,3 1,5 1,8l0 0c0,3 0,6 -1,8 -2,3 -3,5 -5,7 -3,1 -5,2 -8,2zm0 -25l-15 0 0 16 15 0c2,0 3,0 4,-2 1,-2 2,-4 2,-6 0,-2 -1,-4 -2,-5 0,-2 -2,-3 -4,-3z"/>
  <path id="1" class="fil2" d="M420 383c-3,2 -6,3 -10,3 -3,0 -7,-1 -9,-3 -3,-2 -6,-5 -7,-8 -2,-3 -3,-7 -3,-10l0 -30c0,-5 2,-10 6,-14 4,-4 8,-6 13,-6 6,0 10,2 14,6 3,4 5,9 5,14l0 30c0,3 -1,7 -2,10 -2,3 -4,6 -7,8zm-10 -6c3,0 6,-1 8,-4 2,-2 3,-5 3,-8l0 -30c0,-3 -1,-6 -3,-8 -2,-2 -5,-3 -8,-3 -3,0 -5,1 -7,3 -2,2 -3,5 -3,8l0 30c0,3 1,6 3,8 2,3 4,4 7,4z"/>
  <path id="2" class="fil2" d="M449 315l0 62 29 0 0 9 -38 0 0 -71 9 0z"/>
  <path id="3" class="fil2" d="M492 352l-15 -37 10 0 9 24 9 -24 9 0 -14 37 0 34 -8 0 0 -34z"/>
  <path id="4" class="fil2" d="M534 386l-8 0 0 -71 38 0 0 9 -30 0 0 16 30 0 0 9 -30 0 0 37z"/>
  <path id="5" class="fil2" d="M583 315l0 62 29 0 0 9 -37 0 0 -71 8 0z"/>
  <path id="6" class="fil2" d="M652 383c-3,2 -6,3 -10,3 -3,0 -6,-1 -9,-3 -3,-2 -6,-5 -7,-8 -2,-3 -3,-7 -3,-10l0 -30c0,-5 2,-10 6,-14 4,-4 8,-6 13,-6 6,0 10,2 14,6 3,4 5,9 5,14l0 30c0,3 -1,7 -2,10 -2,3 -4,6 -7,8zm-10 -6c3,0 6,-1 8,-4 2,-2 3,-5 3,-8l0 -30c0,-3 -1,-6 -3,-8 -2,-2 -5,-3 -8,-3 -2,0 -5,1 -7,3 -2,2 -3,5 -3,8l0 30c0,3 1,6 3,8 2,3 4,4 7,4z"/>
  <path id="7" class="fil2" d="M702 386l0 -29c0,-2 -1,-4 -2,-5 -1,-2 -3,-3 -4,-3l-15 0 0 37 -9 0 0 -71 24 0c3,0 5,1 7,3 2,1 4,3 5,6 2,3 2,6 2,8 0,5 -1,9 -4,13l-1 0 1 1c3,2 4,5 4,11l0 29 -8 0zm-6 -62l-15 0 0 16 15 0c2,0 3,0 4,-2 1,-2 2,-4 2,-6 0,-2 -1,-4 -2,-5 -1,-2 -2,-3 -4,-3z"/>
  <path id="8" class="fil2" d="M750 346l0 -10c0,-3 -1,-6 -3,-8 -1,-3 -4,-4 -7,-4 -3,0 -6,1 -8,4 -1,2 -2,5 -2,8l0 10 20 0zm9 40l-9 0 0 -32 -20 0 0 32 -9 0 0 -50c0,-3 1,-7 3,-10 1,-3 3,-6 6,-8 3,-2 6,-3 10,-3 4,0 7,1 10,3 3,2 5,5 7,8 1,3 2,7 2,10l0 50z"/>
 </g>
</svg>
